<svg xmlns="http://www.w3.org/2000/svg" xmlns:svgjs="http://svgjs.com/svgjs" xmlns:xlink="http://www.w3.org/1999/xlink" width="288" height="288"><svg xmlns="http://www.w3.org/2000/svg" width="288" height="288" viewBox="0 0 48 48"><path fill="#a73747" d="M4 34V6.1q0-.7.65-1.4T6 4h25.95q.75 0 1.4.675Q34 5.35 34 6.1v17.8q0 .7-.65 1.4t-1.4.7H12Zm10.05 2q-.7 0-1.375-.7T12 33.9V29h25V12h5q.7 0 1.35.7.65.7.65 1.45v29.8L36.05 36ZM31 7H7v19.75L10.75 23H31ZM7 7v19.75Z" class="color000 svgShape"/></svg></svg>